<?xml version="1.0" standalone="no"?>
<!DOCTYPE svg PUBLIC "-//W3C//DTD SVG 20010904//EN"
 "http://www.w3.org/TR/2001/REC-SVG-20010904/DTD/svg10.dtd">
<svg version="1.0" xmlns="http://www.w3.org/2000/svg"
 width="200.000000pt" height="200.000000pt" viewBox="0 0 200.000000 200.000000"
 preserveAspectRatio="xMidYMid meet">
<metadata>
Created by potrace 1.14, written by Peter Selinger 2001-2017
</metadata>
<g transform="translate(0.000000,200.000000) scale(0.100000,-0.100000)"
fill="#000000" stroke="none">
<path d="M835 1794 c-11 -2 -45 -9 -75 -15 -325 -62 -648 -322 -705 -567 -16
-67 -11 -105 22 -171 62 -122 221 -210 502 -277 44 -10 176 -46 178 -48 2 -1
12 -67 24 -147 19 -139 33 -217 42 -249 2 -8 7 -32 11 -52 13 -61 20 -63 169
-48 73 7 162 16 199 19 71 7 88 15 70 33 -8 8 -56 7 -194 -5 -101 -8 -186 -12
-191 -8 -10 10 -65 292 -72 371 -7 87 -10 99 -21 109 -10 10 -62 26 -244 72
-204 52 -264 76 -338 136 -62 51 -93 97 -108 161 -26 113 31 246 158 367 77
74 179 147 248 178 148 66 162 70 265 93 70 15 266 20 335 8 19 -3 49 -12 65
-19 17 -7 41 -16 53 -20 24 -7 24 -7 17 -123 -4 -65 -9 -128 -11 -142 -9 -63
-12 -607 -4 -705 16 -196 48 -423 62 -442 5 -7 7 -21 3 -33 -5 -17 -2 -20 24
-20 37 0 38 7 16 110 -8 40 -13 76 -10 80 8 12 123 49 175 56 25 3 50 7 55 8
29 9 50 -12 55 -55 l5 -44 70 -1 c39 0 83 -4 98 -8 31 -7 67 8 67 28 0 9 13
13 39 13 74 0 86 30 14 35 -44 3 -48 5 -51 30 -3 27 -2 28 42 28 34 0 46 4 46
15 0 11 -12 15 -45 15 -43 0 -45 1 -45 29 0 49 -16 56 -122 55 -53 -1 -101 -4
-107 -8 -6 -4 -11 -27 -11 -52 l0 -44 -48 0 c-68 0 -160 -18 -205 -41 -21 -11
-41 -17 -46 -15 -4 3 -11 31 -15 63 -4 32 -11 94 -17 138 -18 150 -6 938 16
1015 5 17 -22 57 -31 47 -4 -4 -13 -2 -21 5 -7 6 -16 8 -20 5 -3 -3 -17 0 -32
7 -53 27 -275 46 -356 30z"/>
<path d="M834 1315 c-111 -25 -194 -110 -194 -198 0 -76 56 -144 154 -188 24
-10 49 -26 56 -34 9 -10 31 -15 75 -15 56 0 65 3 97 33 23 21 44 54 58 95 51
141 -6 254 -155 305 -32 11 -50 12 -91 2z m89 -26 c24 -6 60 -31 94 -64 54
-52 55 -54 50 -98 -8 -66 -24 -117 -50 -162 l-23 -40 -63 3 c-103 5 -216 66
-243 132 -15 36 -10 107 11 140 22 37 63 70 110 86 45 16 66 17 114 3z"/>
<path d="M822 1183 c-18 -7 -42 -58 -42 -90 0 -20 12 -40 38 -66 51 -50 99
-54 145 -12 49 46 32 126 -33 160 -28 15 -82 19 -108 8z"/>
</g>
</svg>
