<svg width="373" height="153" viewBox="0 0 373 153" fill="none" xmlns="http://www.w3.org/2000/svg">
<path d="M33.3 84.15C32.7 87.75 32.4 90.5 32.4 92.4C32.4 102.1 33.9 109.35 36.9 114.15C30.9 118.65 24.65 120.9 18.15 120.9C11.65 120.9 7 119.05 4.2 115.35C1.4 111.55 3.57628e-07 105.95 3.57628e-07 98.55C3.57628e-07 91.05 3.15 69.9 9.45 35.1L1.5 19.05C12.8 11.75 23.1 8.1 32.4 8.1C35 8.1 37.85 8.6 40.95 9.6C44.05 10.5 46.25 11.55 47.55 12.75C54.95 9.84999 61.8 8.39999 68.1 8.39999C77.5 8.39999 84.9 11.7 90.3 18.3C95.8 24.8 98.55 32.7 98.55 42C98.55 53.2 94.5 63.2 86.4 72C82.5 76.3 77.25 79.75 70.65 82.35C64.05 84.95 57.3 86.25 50.4 86.25C43.6 86.25 37.9 85.55 33.3 84.15ZM36.15 67.05C37.55 67.35 39 67.5 40.5 67.5C46.9 67.5 52.6 65.25 57.6 60.75C62.6 56.25 65.1 50.7 65.1 44.1C65.1 39.5 63.75 35.6 61.05 32.4C58.45 29.2 54.75 27.6 49.95 27.6C47.95 27.6 45.65 28 43.05 28.8C41.05 42.5 38.75 55.25 36.15 67.05ZM120.87 23.7L112.47 11.7C124.97 4.4 134.82 0.749995 142.02 0.749995C146.12 0.749995 149.02 1.6 150.72 3.3C152.42 4.89999 153.27 7.99999 153.27 12.6C153.27 17.1 151.02 29.9 146.52 51C142.12 72.1 139.92 86.9 139.92 95.4C139.92 103.9 141.47 109.9 144.57 113.4C137.57 118.3 131.22 120.75 125.52 120.75C119.82 120.75 115.62 118.9 112.92 115.2C110.32 111.4 109.02 106.2 109.02 99.6C109.02 93 110.87 79.5 114.57 59.1C118.27 38.7 120.37 26.9 120.87 23.7ZM189.684 120.75C180.884 120.75 174.734 118.6 171.234 114.3C167.734 110 165.984 104.6 165.984 98.1C165.984 91.5 167.084 82.5 169.284 71.1C171.484 59.7 172.584 51.45 172.584 46.35C172.584 41.25 171.534 37.25 169.434 34.35C178.734 29.45 186.584 27 192.984 27C197.084 27 200.034 27.85 201.834 29.55C203.734 31.15 204.684 33.8 204.684 37.5C204.684 41.2 203.134 50.3 200.034 64.8C197.034 79.2 195.534 88.1 195.534 91.5C195.534 94.9 196.484 97.6 198.384 99.6C200.284 101.5 202.784 102.45 205.884 102.45C208.984 102.45 212.284 101.25 215.784 98.85C219.284 96.35 222.134 92.85 224.334 88.35C225.734 80.25 228.484 67.45 232.584 49.95L223.584 37.95C233.684 30.65 243.284 27 252.384 27C256.884 27 260.084 27.85 261.984 29.55C263.984 31.15 264.984 33.65 264.984 37.05C264.984 40.35 263.134 49.9 259.434 65.7C255.834 81.5 254.034 92.75 254.034 99.45C254.034 106.05 255.584 110.7 258.684 113.4C253.084 118.3 247.184 120.75 240.984 120.75C234.884 120.75 230.484 119.4 227.784 116.7C225.084 114 223.734 110.45 223.734 106.05L222.234 105.3C218.934 110.1 214.334 113.9 208.434 116.7C202.634 119.4 196.384 120.75 189.684 120.75ZM306.635 75C306.635 80.1 308.035 84.25 310.835 87.45C313.735 90.55 317.285 92.1 321.485 92.1C327.185 92.1 332.285 89.4 336.785 84C338.485 75.1 340.685 61.05 343.385 41.85C332.185 41.85 323.235 45.1 316.535 51.6C309.935 58.1 306.635 65.9 306.635 75ZM346.385 131.85C341.685 138.15 335.785 143.1 328.685 146.7C321.585 150.4 314.085 152.25 306.185 152.25C298.385 152.25 292.085 150.75 287.285 147.75C282.585 144.85 280.235 140.9 280.235 135.9C280.235 130.9 282.285 125.65 286.385 120.15C290.985 126.95 297.885 130.35 307.085 130.35C313.085 130.35 318.635 127.75 323.735 122.55C328.935 117.45 332.385 109.95 334.085 100.05L332.585 99.3C325.485 109.7 316.385 114.9 305.285 114.9C296.885 114.9 290.285 111.65 285.485 105.15C280.685 98.65 278.285 90 278.285 79.2C278.285 68.8 281.135 59.3 286.835 50.7C293.335 40.8 302.385 33.95 313.985 30.15C320.385 28.05 326.485 27 332.285 27C338.085 27 342.985 27.4 346.985 28.2C347.585 30.9 347.935 33.35 348.035 35.55C352.735 32.35 357.485 30.75 362.285 30.75C369.185 30.75 372.635 34.3 372.635 41.4C372.635 48.5 372.185 55.8 371.285 63.3C370.385 70.7 368.985 78.65 367.085 87.15C365.185 95.65 362.435 103.7 358.835 111.3C355.335 118.8 351.185 125.65 346.385 131.85Z" fill="#6FB9B4"/>
</svg>
